<?xml version="1.0" encoding="UTF-8"?>
<svg version="1.1" xmlns="http://www.w3.org/2000/svg" width="200" height="200">
<path d="M0 0 C2.12890625 -0.328125 2.12890625 -0.328125 4.5625 -0.25 C5.36816406 -0.23453125 6.17382812 -0.2190625 7.00390625 -0.203125 C9 0 9 0 10 1 C11.99799572 1.09873816 13.99957158 1.12971799 16 1.125 C17.093125 1.12757812 18.18625 1.13015625 19.3125 1.1328125 C21.91830354 1.30547755 21.91830354 1.30547755 23 0 C24.51928038 -0.07179964 26.04167482 -0.08392007 27.5625 -0.0625 C28.38878906 -0.05347656 29.21507813 -0.04445313 30.06640625 -0.03515625 C30.70449219 -0.02355469 31.34257813 -0.01195312 32 0 C35 5.75 35 5.75 35 8 C35.71800781 7.96519531 36.43601562 7.93039063 37.17578125 7.89453125 C44.24948283 7.7095403 51.00652048 8.22263691 58 9.25 C59.21876831 9.41399292 59.21876831 9.41399292 60.4621582 9.58129883 C65.34977065 10.35452348 68.55055067 11.22457178 72 15 C74.01106033 18.08175673 75.7065966 21.28479357 77.375 24.5625 C77.85179199 25.48836914 78.32858398 26.41423828 78.81982422 27.36816406 C81.92821837 33.5387621 84.70384192 39.77903501 87.125 46.25 C87.40778809 46.99838135 87.69057617 47.7467627 87.98193359 48.51782227 C90.06583463 54.38723642 92.36994602 61.07329715 89.625 66.9375 C88.78543884 67.98767272 87.90335729 69.00417306 87 70 C86.35417969 70.72703125 85.70835937 71.4540625 85.04296875 72.203125 C83.6114265 73.7976274 82.16710012 75.38079598 80.70703125 76.94921875 C78.31529473 79.56826515 76.13485001 82.33539739 73.92578125 85.109375 C68.38819475 91.91566999 62.16422308 97.94387948 55.86035156 104.02319336 C46.32350618 113.24677343 39.34585611 122.43615131 33.9375 134.625 C30.96852355 141.30882952 27.91093684 147.49858724 23 153 C22.67 153 22.34 153 22 153 C22 137.16 22 121.32 22 105 C28.6 105 35.2 105 42 105 C43.32 102.36 44.64 99.72 46 97 C44.57945312 97.08378906 43.15890625 97.16757813 41.6953125 97.25390625 C39.83855767 97.3570593 37.98178592 97.45990814 36.125 97.5625 C34.71927734 97.64661133 34.71927734 97.64661133 33.28515625 97.73242188 C32.38925781 97.78076172 31.49335937 97.82910156 30.5703125 97.87890625 C29.32918701 97.94960327 29.32918701 97.94960327 28.06298828 98.02172852 C26 98 26 98 24 97 C24.57344937 94.13275314 24.8614515 93.1385485 27 91 C29.61376953 90.68115234 29.61376953 90.68115234 32.8828125 90.5859375 C34.04941406 90.54726562 35.21601562 90.50859375 36.41796875 90.46875 C37.64128906 90.4378125 38.86460938 90.406875 40.125 90.375 C41.35605469 90.33632812 42.58710937 90.29765625 43.85546875 90.2578125 C46.90349376 90.1633001 49.95150862 90.07774506 53 90 C53.66 88.35 54.32 86.7 55 85 C46.42 85.33 37.84 85.66 29 86 C29.66 84.02 30.32 82.04 31 80 C35.37813668 79.57153061 39.75639308 79.14431253 44.13476562 78.71826172 C45.62470819 78.57309949 47.11461728 78.42759331 48.60449219 78.28173828 C50.74405382 78.07234044 52.88373214 77.8641734 55.0234375 77.65625 C56.95582275 77.46772461 56.95582275 77.46772461 58.92724609 77.27539062 C62 77 62 77 64 77 C64.144375 76.05125 64.28875 75.1025 64.4375 74.125 C65 71 65 71 66 69 C64.75347656 69.30679688 63.50695312 69.61359375 62.22265625 69.9296875 C56.66285751 71.16519833 51.10640393 71.66728572 45.4375 72.125 C44.42880859 72.21136719 43.42011719 72.29773438 42.38085938 72.38671875 C39.92097635 72.59656659 37.46077098 72.80088467 35 73 C34.375 71.125 34.375 71.125 34 69 C36.75267102 66.24732898 39.05471105 66.23257387 42.87109375 65.52734375 C43.54922623 65.39936905 44.2273587 65.27139435 44.92604065 65.13954163 C47.09522827 64.73150627 49.26619435 64.33409538 51.4375 63.9375 C53.60482104 63.53537866 55.77170929 63.13106313 57.93824768 62.7247467 C59.90655635 62.35659097 61.87598457 61.99443602 63.84545898 61.63256836 C67.00805303 61.0659449 67.00805303 61.0659449 70 60 C70.33 57.69 70.66 55.38 71 53 C70.2471875 53.31453125 69.494375 53.6290625 68.71875 53.953125 C62.38325464 56.50577604 56.11960213 58.64686332 49.5 60.3125 C48.83033203 60.48362305 48.16066406 60.65474609 47.47070312 60.83105469 C43.91343278 61.69260909 40.66005117 62.19004112 37 62 C37.19921875 59.64453125 37.19921875 59.64453125 38 57 C40.01953125 55.69921875 40.01953125 55.69921875 42.8125 54.6875 C43.87597656 54.2853125 44.93945312 53.883125 46.03515625 53.46875 C46.64762207 53.24445313 47.26008789 53.02015625 47.89111328 52.7890625 C51.28342104 51.5197943 54.63576469 50.15230059 57.99487305 48.7980957 C61.99186984 47.18690045 65.99606322 45.59385199 70 44 C70 41.36 70 38.72 70 36 C69.35973877 36.32274902 68.71947754 36.64549805 68.05981445 36.97802734 C65.14510538 38.44580569 62.22882294 39.91043104 59.3125 41.375 C58.30509766 41.88289063 57.29769531 42.39078125 56.25976562 42.9140625 C55.28330078 43.40390625 54.30683594 43.89375 53.30078125 44.3984375 C52.40528564 44.84880371 51.50979004 45.29916992 50.5871582 45.76318359 C46.42327747 47.7537677 43.68598192 49 39 49 C38.67 47.35 38.34 45.7 38 44 C44.17694528 40.00629441 50.53315382 36.55330863 57.08398438 33.21875 C57.80521484 32.84492187 58.52644531 32.47109375 59.26953125 32.0859375 C59.91510986 31.7564209 60.56068848 31.4269043 61.22583008 31.08740234 C63.11657618 29.92854957 64.49861373 28.62319849 66 27 C64.68 25.68 63.36 24.36 62 23 C56.83907586 24.45852204 52.74351111 26.80000284 48.25 29.625 C41.25805215 34 41.25805215 34 39 34 C38.67 32.35 38.34 30.7 38 29 C32.7301149 32.29187343 30.54497352 35.28678351 29.0625 41.375 C28.68259435 43.24495474 28.31962082 45.11880316 28 47 C27.01 47 26.02 47 25 47 C24.505 42.545 24.505 42.545 24 38 C22.9275 38.680625 21.855 39.36125 20.75 40.0625 C17.30522055 42.00924911 17.30522055 42.00924911 14.9375 41.9375 C14.298125 41.628125 13.65875 41.31875 13 41 C11.9275 40.484375 10.855 39.96875 9.75 39.4375 C8.8425 38.963125 7.935 38.48875 7 38 C7.020625 39.11375 7.04125 40.2275 7.0625 41.375 C7 45 7 45 6 47 C5.01 47 4.02 47 3 47 C2.85304687 46.19175781 2.70609375 45.38351563 2.5546875 44.55078125 C1.22836806 37.3185912 1.22836806 37.3185912 -3.1875 31.75 C-4.115625 31.1725 -5.04375 30.595 -6 30 C-6.33 31.32 -6.66 32.64 -7 34 C-10.15762758 32.88989655 -12.95661849 31.48647668 -15.8125 29.765625 C-16.49570313 29.35699219 -17.17890625 28.94835937 -17.8828125 28.52734375 C-19.30122832 27.67158365 -20.712709 26.80422813 -22.1171875 25.92578125 C-26.24233368 23.39356704 -26.24233368 23.39356704 -30.9375 23.546875 C-33.29787782 24.90463442 -33.29787782 24.90463442 -34 28 C-33.29391602 28.37809814 -32.58783203 28.75619629 -31.86035156 29.14575195 C-28.65506446 30.86460166 -25.45251514 32.58849157 -22.25 34.3125 C-21.13882813 34.90740234 -20.02765625 35.50230469 -18.8828125 36.11523438 C-17.81289062 36.69208984 -16.74296875 37.26894531 -15.640625 37.86328125 C-14.65610352 38.39219971 -13.67158203 38.92111816 -12.65722656 39.46606445 C-10.28185493 40.83729378 -8.14775036 42.30006896 -6 44 C-6.33 45.65 -6.66 47.3 -7 49 C-14.29556739 48.67551996 -20.05557646 45.25155525 -26.4375 41.9375 C-27.55060547 41.36966797 -28.66371094 40.80183594 -29.81054688 40.21679688 C-32.54512635 38.82016616 -35.27457836 37.41439492 -38 36 C-38 38.64 -38 41.28 -38 44 C-32.85583802 46.08528258 -27.70024067 48.12856786 -22.5 50.0703125 C-21.59378906 50.40933594 -20.68757813 50.74835938 -19.75390625 51.09765625 C-17.88797494 51.79374126 -16.02074187 52.48634491 -14.15234375 53.17578125 C-13.25644531 53.51222656 -12.36054687 53.84867188 -11.4375 54.1953125 C-10.63183594 54.49453613 -9.82617188 54.79375977 -8.99609375 55.10205078 C-7 56 -7 56 -5 58 C-5 59.32 -5 60.64 -5 62 C-17.04551238 61.42640417 -29.51393394 58.02391029 -40 52 C-39.34 54.64 -38.68 57.28 -38 60 C-34.20847648 60.79235325 -30.41675484 61.58375456 -26.625 62.375 C-25.03365234 62.70757812 -25.03365234 62.70757812 -23.41015625 63.046875 C-22.35957031 63.26601562 -21.30898438 63.48515625 -20.2265625 63.7109375 C-19.1840332 63.92975586 -18.14150391 64.14857422 -17.06738281 64.37402344 C-15.06547544 64.78256296 -13.05957888 65.17214594 -11.04980469 65.54003906 C-10.15422852 65.7047168 -9.25865234 65.86939453 -8.3359375 66.0390625 C-7.14943604 66.24716553 -7.14943604 66.24716553 -5.93896484 66.45947266 C-4 67 -4 67 -2 69 C-2 70.32 -2 71.64 -2 73 C-12.88529859 72.54050414 -23.31408771 71.07963287 -34 69 C-33.67 69.763125 -33.34 70.52625 -33 71.3125 C-32 74 -32 74 -32 77 C-31.24904053 77.05534912 -30.49808105 77.11069824 -29.72436523 77.16772461 C-26.29522322 77.42186246 -22.86636475 77.67964937 -19.4375 77.9375 C-18.25607422 78.02451172 -17.07464844 78.11152344 -15.85742188 78.20117188 C-10.20182491 78.6289061 -4.59932526 79.08733465 1 80 C1.66 81.65 2.32 83.3 3 85 C2 86 2 86 -0.40844727 86.02172852 C-1.45057373 85.97459717 -2.4927002 85.92746582 -3.56640625 85.87890625 C-4.69111328 85.83056641 -5.81582031 85.78222656 -6.97460938 85.73242188 C-8.75061523 85.64831055 -8.75061523 85.64831055 -10.5625 85.5625 C-11.75037109 85.51029297 -12.93824219 85.45808594 -14.16210938 85.40429688 C-17.10831066 85.2741434 -20.05421276 85.1391636 -23 85 C-22.34 86.65 -21.68 88.3 -21 90 C-20.22809326 90.01458252 -19.45618652 90.02916504 -18.66088867 90.04418945 C-15.16924907 90.11858033 -11.6785751 90.2152709 -8.1875 90.3125 C-6.97255859 90.33505859 -5.75761719 90.35761719 -4.50585938 90.38085938 C-2.76079102 90.4340332 -2.76079102 90.4340332 -0.98046875 90.48828125 C0.09307861 90.51446533 1.16662598 90.54064941 2.27270508 90.56762695 C5 91 5 91 6.8737793 92.34448242 C8 94 8 94 8 97 C5.54749907 98.22625047 4.15689565 98.03425355 1.4296875 97.87890625 C0.08583984 97.80639648 0.08583984 97.80639648 -1.28515625 97.73242188 C-2.22230469 97.67634766 -3.15945312 97.62027344 -4.125 97.5625 C-5.06988281 97.51029297 -6.01476562 97.45808594 -6.98828125 97.40429688 C-9.32579841 97.27443481 -11.66294021 97.13784835 -14 97 C-12.68 99.64 -11.36 102.28 -10 105 C-3.4 105 3.2 105 10 105 C10 120.84 10 136.68 10 153 C5.91291885 148.91291885 4.1262434 146.85429321 1.73046875 141.95703125 C1.15103516 140.80009766 0.57160156 139.64316406 -0.02539062 138.45117188 C-1.20949181 136.04706804 -2.38649709 133.63954942 -3.56445312 131.23242188 C-9.84338006 118.70925822 -18.09848382 109.60823508 -28.0625 99.875 C-34.28512161 93.7729109 -40.37347678 87.66047604 -46 81 C-47.00589546 79.83800903 -48.01238537 78.67653234 -49.01953125 77.515625 C-49.95116874 76.4276378 -50.88216871 75.33910433 -51.8125 74.25 C-52.28880859 73.69957031 -52.76511719 73.14914063 -53.25585938 72.58203125 C-58.92697675 65.92983449 -58.92697675 65.92983449 -59.07763672 61.94824219 C-58.37768505 56.43127074 -57.08948678 51.44889394 -55.125 46.25 C-54.8254541 45.44941162 -54.5259082 44.64882324 -54.21728516 43.82397461 C-51.64908857 37.21083651 -48.62167596 30.86712997 -45.375 24.5625 C-44.92012207 23.66885742 -44.46524414 22.77521484 -43.99658203 21.85449219 C-39.57706508 13.53408324 -39.57706508 13.53408324 -35 11 C-32.00808119 10.13246163 -29.02170866 9.66303377 -25.9375 9.25 C-25.09856201 9.12713623 -24.25962402 9.00427246 -23.39526367 8.87768555 C-16.91531904 7.98520829 -10.53992361 7.64754903 -4 8 C-3.71125 7.236875 -3.4225 6.47375 -3.125 5.6875 C-2 3 -2 3 0 0 Z M35 9 C32.46697354 11.29948502 29.98079698 13.64436035 27.5 16 C26.78457031 16.64839844 26.06914063 17.29679687 25.33203125 17.96484375 C21.46979488 21.54589382 21.46979488 21.54589382 19.53125 26.28515625 C19.48224903 28.72266777 19.48224903 28.72266777 20 32 C24.00453651 30.62701605 26.91685133 28.91649198 30 26 C30.68753301 24.34183216 31.35561283 22.67540664 32 21 C34.35044531 18.87701714 35.96989274 18.01003575 39 17 C38.48967606 13.22360282 37.79233071 11.55277419 35 9 Z M-4 10 C-6.0624994 11.81222534 -6.0624994 11.81222534 -8 14 C-8 14.99 -8 15.98 -8 17 C-7.44570312 17.21914063 -6.89140625 17.43828125 -6.3203125 17.6640625 C-4.07531161 18.64674972 -2.03497849 19.63070806 0 21 C0.71706982 22.98248715 1.38290413 24.98415349 2 27 C4.55972558 29.40878354 7.37802957 32 11 32 C11.51113899 28.86927371 11.6427647 26.11915271 11 23 C8.73233672 20.12647248 5.94151686 18.14858623 3 16 C1.65707829 14.86541942 0.32289387 13.7203703 -1 12.5625 C-1.99 11.716875 -2.98 10.87125 -4 10 Z " fill="#B846EA" transform="translate(84,16)"/>
<path d="M0 0 C3.68667002 -0.20474001 7.37186743 -0.32809831 11.0625 -0.4375 C12.10083984 -0.49615234 13.13917969 -0.55480469 14.20898438 -0.61523438 C21.818775 -0.78434083 21.818775 -0.78434083 25.171875 1.44213867 C26.94412765 3.20612522 28.48041128 5.01668073 30 7 C30.71929687 7.75667969 31.43859375 8.51335937 32.1796875 9.29296875 C32.73914063 9.91816406 33.29859375 10.54335937 33.875 11.1875 C34.73738281 12.13689453 34.73738281 12.13689453 35.6171875 13.10546875 C37.15359374 15.2104321 37.70626388 16.41600336 38 19 C36.93603516 21.07470703 36.93603516 21.07470703 35.2890625 23.2578125 C34.70382813 24.04800781 34.11859375 24.83820313 33.515625 25.65234375 C32.89171875 26.46832031 32.2678125 27.28429687 31.625 28.125 C30.40797336 29.75194566 29.19178602 31.37951959 27.9765625 33.0078125 C27.43080566 33.72598145 26.88504883 34.44415039 26.32275391 35.18408203 C24.94802714 36.96632927 24.94802714 36.96632927 24 39 C9.48 39 -5.04 39 -20 39 C-17.5270125 31.58103751 -17.5270125 31.58103751 -15 30 C-11.81713867 29.71044922 -11.81713867 29.71044922 -7.91796875 29.8046875 C-6.49675235 29.81165977 -5.07552606 29.81681038 -3.65429688 29.8203125 C-1.4214964 29.84091165 0.80835291 29.87487638 3.0402832 29.94140625 C11.7930355 30.48845734 11.7930355 30.48845734 19.34912109 26.93847656 C20.86182573 24.670086 22.0250738 22.54153174 23 20 C21.18892276 16.17808686 19.35592413 13.67382573 16 11 C13.11043141 10.49999417 10.75642795 10.2552485 7.875 10.25 C0.21148256 10.07049419 0.21148256 10.07049419 -3 9 C-2.43945339 5.63672037 -1.58158962 3.00887781 0 0 Z " fill="#B947EA" transform="translate(125,145)"/>
<path d="M0 0 C1.05509766 0.05027344 2.11019531 0.10054687 3.19726562 0.15234375 C4.80891602 0.19294922 4.80891602 0.19294922 6.453125 0.234375 C9.0990613 0.3049333 11.74087802 0.40345619 14.38476562 0.52734375 C17.38476562 6.15234375 17.38476562 6.15234375 17.38476562 9.52734375 C14.13248295 10.5889697 11.04391337 10.58606529 7.64648438 10.61547852 C0.99242168 10.60435192 0.99242168 10.60435192 -4.99804688 13.1484375 C-6.82768829 15.23513293 -6.82768829 15.23513293 -8.61523438 18.52734375 C-7.14969234 22.67971286 -5.43919846 26.12923077 -2.61523438 29.52734375 C0.77230774 30.33159709 0.77230774 30.33159709 4.59960938 30.0859375 C6.02213506 30.07999209 7.44466112 30.07413545 8.8671875 30.06835938 C11.09696155 30.02243276 13.32606939 29.96473605 15.55541992 29.90161133 C28.10492864 29.60634508 28.10492864 29.60634508 31.50244141 32.05126953 C33.24325628 34.41997959 34.38476562 36.53708679 34.38476562 39.52734375 C-3.96175127 42.54396572 -3.96175127 42.54396572 -12.95898438 37.74316406 C-18.01455223 33.03395121 -20.86958941 27.15771365 -22.61523438 20.52734375 C-22.84847412 19.65287598 -23.08171387 18.7784082 -23.32202148 17.87744141 C-23.41878174 17.10190918 -23.51554199 16.32637695 -23.61523438 15.52734375 C-21.70117188 13.28125 -21.70117188 13.28125 -18.99023438 11.08984375 C-15.91135832 8.56624886 -13.68652488 6.63819584 -11.51757812 3.265625 C-7.65176748 -0.38166068 -5.15754209 -0.09761909 0 0 Z " fill="#B947EA" transform="translate(60.615234375,144.47265625)"/>
<path d="M0 0 C2.95409701 1.37154504 5.44008376 2.98863724 8 5 C8.598125 4.505 9.19625 4.01 9.8125 3.5 C12 2 12 2 15 2 C14.83242187 2.75925781 14.66484375 3.51851562 14.4921875 4.30078125 C14.28851563 5.29464844 14.08484375 6.28851563 13.875 7.3125 C13.56175781 8.79169922 13.56175781 8.79169922 13.2421875 10.30078125 C12.69575237 13.22270283 12.69575237 13.22270283 15 16 C14.79511205 19.07331924 14.05298524 19.9514302 11.75 22.0625 C9.67380663 24.78672952 9.67380663 24.78672952 10.51171875 27.34375 C10.81722656 28.2409375 11.12273437 29.138125 11.4375 30.0625 C13.7457932 37.05387363 12.25988809 43.48022381 9 50 C8.34 50 7.68 50 7 50 C6.84144531 49.23816406 6.68289062 48.47632813 6.51953125 47.69140625 C5.31331262 42.35338901 4.10647044 37.79056751 1.1875 33.125 C-1.06678335 29.38585935 -1.06678335 29.38585935 -0.4375 25.75 C0.036875 24.8425 0.51125 23.935 1 23 C1.37125 22.05125 1.7425 21.1025 2.125 20.125 C2.41375 19.42375 2.7025 18.7225 3 18 C1.7625 17.4740625 1.7625 17.4740625 0.5 16.9375 C-2 15 -2 15 -2.4375 11.8125 C-1.96501284 7.69511189 -1.11898276 3.98637607 0 0 Z " fill="#B947EA" transform="translate(92,60)"/>
<path d="M0 0 C0.66 0 1.32 0 2 0 C2.38808856 11.10364498 2.38808856 11.10364498 0 15 C-0.99 15.33 -1.98 15.66 -3 16 C-4.10636395 18.39068734 -4.10636395 18.39068734 -5 21 C-5.66 21.99 -6.32 22.98 -7 24 C-10.0390625 24.29296875 -10.0390625 24.29296875 -13.625 24.1875 C-14.81351563 24.16042969 -16.00203125 24.13335937 -17.2265625 24.10546875 C-18.14179688 24.07066406 -19.05703125 24.03585938 -20 24 C-19.53850952 19.20224044 -17.5466299 16.91334365 -14.3125 13.4375 C-13.46300781 12.50808594 -12.61351562 11.57867187 -11.73828125 10.62109375 C-8.99899596 7.99903893 -6.17343847 6.05760216 -3 4 C-1.97676564 2.68441297 -0.96873032 1.35622245 0 0 Z " fill="#B947EA" transform="translate(150,116)"/>
<path d="M0 0 C3.96 0 7.92 0 12 0 C10.51799926 3.70500184 9.091496 6.67262 7 10 C2.57320993 8.52440331 2.08567304 6.09942632 0 2 C0 1.34 0 0.68 0 0 Z " fill="#BBBDB9" transform="translate(94,17)"/>
</svg>
